<?xml version="1.0" encoding="UTF-8" standalone="no"?>
<svg
   xmlns:dc="http://purl.org/dc/elements/1.1/"
   xmlns:cc="http://creativecommons.org/ns#"
   xmlns:rdf="http://www.w3.org/1999/02/22-rdf-syntax-ns#"
   xmlns:svg="http://www.w3.org/2000/svg"
   xmlns="http://www.w3.org/2000/svg"
   xmlns:sodipodi="http://sodipodi.sourceforge.net/DTD/sodipodi-0.dtd"
   xmlns:inkscape="http://www.inkscape.org/namespaces/inkscape"
   width="32"
   height="42"
   viewBox="0 0 32 42"
   id="svg2"
   version="1.1"
   inkscape:version="0.91 r13725"
   sodipodi:docname="document_template_icon.svg">
  <metadata
     id="metadata16">
    <rdf:RDF>
      <cc:Work
         rdf:about="">
        <dc:format>image/svg+xml</dc:format>
        <dc:type
           rdf:resource="http://purl.org/dc/dcmitype/StillImage" />
        <dc:title></dc:title>
      </cc:Work>
    </rdf:RDF>
  </metadata>
  <defs
     id="defs14" />
  <sodipodi:namedview
     pagecolor="#ffffff"
     bordercolor="#666666"
     borderopacity="1"
     objecttolerance="10"
     gridtolerance="10"
     guidetolerance="10"
     inkscape:pageopacity="0"
     inkscape:pageshadow="2"
     inkscape:window-width="944"
     inkscape:window-height="1010"
     id="namedview12"
     showgrid="false"
     inkscape:zoom="5.6190476"
     inkscape:cx="16"
     inkscape:cy="21"
     inkscape:window-x="0"
     inkscape:window-y="0"
     inkscape:window-maximized="0"
     inkscape:current-layer="g4" />
  <g
     id="g4">
    <path
       fill="rgb(250,205,81)"
       fill-rule="evenodd"
       d="M32 39c0 1.65685425-1.34314575 3-3 3H3c-1.65685425 0-3-1.34314575-3-3V3c0-1.65685425 1.34314575-3 3-3h19l10 10v29z"
       id="path6"
       style="fill:#eef0fd;fill-opacity:1" />
    <path
       fill="rgb(202,166,66)"
       fill-rule="evenodd"
       d="M30.5 11H22c-.55228475 0-1-.44771525-1-1V1.5l9.5 9.5z"
       id="path8"
       style="fill:#8795db;fill-opacity:1" />
    <path
       fill="rgb(202,166,66)"
       fill-rule="evenodd"
       d="M9 20c-.55227661 0-1-.44769287-1-1s.44772339-1 1-1h15c.55227661 0 1 .44769287 1 1s-.44772339 1-1 1H9zm0 4c-.55227661 0-1-.44769287-1-1s.44772339-1 1-1h11c.55227661 0 1 .44769287 1 1s-.44772339 1-1 1H9zm0 4c-.55227661 0-1-.44769287-1-1s.44772339-1 1-1h15c.55227661 0 1 .44769287 1 1s-.44772339 1-1 1H9zm0 4c-.55227661 0-1-.44769287-1-1s.44772339-1 1-1h11c.55227661 0 1 .44769287 1 1s-.44772339 1-1 1H9z"
       id="path10"
       style="fill:#8795db;fill-opacity:1" />
  </g>
</svg>
