<svg xmlns="http://www.w3.org/2000/svg" width="32" height="42" viewBox="0 0 32 42">
  <g>
    <path fill="rgb(250,205,81)" fill-rule="evenodd" d="M32 39c0 1.65685425-1.34314575 3-3 3H3c-1.65685425 0-3-1.34314575-3-3V3c0-1.65685425 1.34314575-3 3-3h19l10 10v29z"/>
    <path fill="rgb(202,166,66)" fill-rule="evenodd" d="M30.5 11H22c-.55228475 0-1-.44771525-1-1V1.5l9.5 9.5z"/>
    <path fill="rgb(202,166,66)" fill-rule="evenodd" d="M9 20c-.55227661 0-1-.44769287-1-1s.44772339-1 1-1h15c.55227661 0 1 .44769287 1 1s-.44772339 1-1 1H9zm0 4c-.55227661 0-1-.44769287-1-1s.44772339-1 1-1h11c.55227661 0 1 .44769287 1 1s-.44772339 1-1 1H9zm0 4c-.55227661 0-1-.44769287-1-1s.44772339-1 1-1h15c.55227661 0 1 .44769287 1 1s-.44772339 1-1 1H9zm0 4c-.55227661 0-1-.44769287-1-1s.44772339-1 1-1h11c.55227661 0 1 .44769287 1 1s-.44772339 1-1 1H9z"/>
  </g>
</svg>
